<svg width="1200" height="1500" viewBox="0 0 1200 1500" fill="none" xmlns="http://www.w3.org/2000/svg">
  <rect width="1200" height="1500" fill="#111111"/>
  <rect x="120" y="140" width="960" height="1220" rx="80" fill="#1A1A1A"/>
  <circle cx="840" cy="320" r="220" fill="#C9A05B" fill-opacity="0.2"/>
  <circle cx="380" cy="980" r="260" fill="#B87544" fill-opacity="0.2"/>
  <path d="M380 980C420 880 520 820 640 820C780 820 900 930 900 1070V1210H320V1070C320 1030 330 1000 340 980H380Z" fill="#F8F6F2" fill-opacity="0.08"/>
  <path d="M520 520C560 430 640 380 730 380C840 380 930 470 930 580C930 670 860 740 760 760C660 780 560 720 520 630C500 580 500 550 520 520Z" fill="#F8F6F2" fill-opacity="0.12"/>
  <text x="150" y="220" fill="#F8F6F2" font-size="28" font-family="Poppins, sans-serif" letter-spacing="0.3em">CONSULTOR</text>
  <text x="150" y="260" fill="#C9A05B" font-size="16" font-family="Inter, sans-serif" letter-spacing="0.4em">GASTRONÔMICO</text>
</svg>
