<svg width="1200" height="1400" viewBox="0 0 1200 1400" fill="none" xmlns="http://www.w3.org/2000/svg">
  <rect width="1200" height="1400" fill="#111111"/>
  <rect x="140" y="120" width="920" height="1160" rx="70" fill="#1A1A1A"/>
  <circle cx="360" cy="360" r="240" fill="#C9A05B" fill-opacity="0.18"/>
  <circle cx="840" cy="980" r="280" fill="#B87544" fill-opacity="0.18"/>
  <path d="M420 880C480 760 600 720 720 720C860 720 980 820 980 960V1150H360V960C360 920 380 900 420 880Z" fill="#F8F6F2" fill-opacity="0.1"/>
  <path d="M520 460C560 380 650 340 750 350C860 360 940 450 940 560C940 680 840 760 720 760C620 760 530 700 500 610C480 550 490 500 520 460Z" fill="#F8F6F2" fill-opacity="0.12"/>
  <text x="160" y="210" fill="#F8F6F2" font-size="24" font-family="Poppins, sans-serif" letter-spacing="0.25em">EXPERTISE</text>
</svg>
